<?xml version="1.0" encoding="UTF-8"?>
<svg width="104px" height="26px" viewBox="0 0 104 26" version="1.1" xmlns="http://www.w3.org/2000/svg" xmlns:xlink="http://www.w3.org/1999/xlink">
    <!-- Generator: Sketch 52.6 (67491) - http://www.bohemiancoding.com/sketch -->
    <title>Cafe Board Horizontal Copy</title>
    <desc>Created with Sketch.</desc>
    <g id="Page-1" stroke="none" stroke-width="1" fill="none" fill-rule="evenodd">
        <g id="Sign-In-UI" transform="translate(-1268.000000, -12.000000)" fill="#FFFFFF">
            <g id="Cafe-Board-Horizontal" transform="translate(1268.000000, 12.000000)">
                <path d="M11.4006061,12.4806341 C11.4006061,9.09556098 8.6632,6.34146341 5.29864242,6.34146341 L4.5766303,6.34146341 L3.05098182,10.1450732 L5.29864242,10.1450732 C6.57847273,10.1450732 7.62004848,11.1926829 7.62004848,12.4806341 C7.62004848,13.7685854 6.57847273,14.8165122 5.29864242,14.8165122 L1.52533333,14.8165122 L0,18.620122 L5.29864242,18.620122 C8.6632,18.620122 11.4006061,15.8660244 11.4006061,12.4806341" id="Fill-3-Copy"></path>
                <path d="M45.5564121,20.2926829 C44.2416,20.2926829 43.1757576,21.3650244 43.1757576,22.6878537 C43.1757576,24.0106829 44.2416,25.0830244 45.5564121,25.0830244 C46.8712242,25.0830244 47.9370667,24.0106829 47.9370667,22.6878537 C47.9370667,21.3650244 46.8712242,20.2926829 45.5564121,20.2926829" id="Fill-4-Copy"></path>
                <path d="M47.7337939,12.4375122 L47.7337939,6.65853659 L43.9532364,8.19380488 L43.9532364,12.4375122 C43.9532364,13.7254634 42.9116606,14.7733902 41.6318303,14.7733902 L16.9315152,14.7733902 L9.13939394,23.3736829 L11.9540121,25.913122 L18.6191515,18.577 L41.6318303,18.577 C44.9963879,18.577 47.7337939,15.8229024 47.7337939,12.4375122" id="Fill-5-Copy"></path>
                <path d="M36.0148848,11.7481951 L40.2331879,7.50417073 C41.4332848,6.2967561 41.4332848,4.3324878 40.2331879,3.12507317 C39.0334061,1.91765854 37.0807273,1.91765854 35.8809455,3.12507317 C34.6808485,4.3324878 34.6808485,6.2967561 35.8809455,7.50417073 C36.1740364,7.79904878 36.5118788,8.02131707 36.8730424,8.17192683 L34.6666667,10.3917561 L36.0148848,11.7481951 L36.0148848,11.7481951 Z M37.2291636,4.4815122 C37.6858182,4.02207317 38.4286303,4.02239024 38.8849697,4.4815122 C39.3416242,4.94095122 39.3416242,5.68829268 38.8849697,6.14741463 C38.4286303,6.60685366 37.6858182,6.60685366 37.2291636,6.14741463 C36.7725091,5.68829268 36.7725091,4.94095122 37.2291636,4.4815122 L37.2291636,4.4815122 Z" id="Fill-6-Copy"></path>
                <path d="M77.3867152,0 C76.071903,0 75.0060606,1.07234146 75.0060606,2.39517073 C75.0060606,3.718 76.071903,4.79034146 77.3867152,4.79034146 C78.7015273,4.79034146 79.7673697,3.718 79.7673697,2.39517073 C79.7673697,1.07234146 78.7015273,0 77.3867152,0" id="Fill-1-Copy"></path>
                <path d="M101.020242,1.26829268 L93.5111273,9.53280488 L96.3254303,12.0722439 L97.9342788,10.3311951 C98.6824485,10.7192927 99.1955152,11.5043659 99.1955152,12.4080244 C99.1955152,13.6959756 98.1542545,14.7439024 96.8741091,14.7439024 L90.4472242,14.7439024 L90.4472242,2.19414634 L86.6666667,3.73321951 L86.6666667,18.5471951 L96.8980606,18.5471951 L96.8980606,18.546878 C98.4177212,18.5411707 99.8081697,17.9736098 100.874327,17.0401463 L100.874958,17.0398293 C100.911515,17.0074878 100.947758,16.9751463 100.98337,16.9424878 C100.984,16.9418537 100.98463,16.9415366 100.985261,16.9409024 C101.020558,16.9082439 101.055539,16.8755854 101.090206,16.8422927 C101.091152,16.8410244 101.092412,16.8397561 101.093673,16.8388049 C101.127709,16.8061463 101.161115,16.7728537 101.194206,16.7392439 C101.196097,16.7376585 101.197673,16.7357561 101.199564,16.7338537 C101.232024,16.7011951 101.264485,16.6679024 101.296315,16.6342927 C101.298521,16.6317561 101.300727,16.6292195 101.302933,16.627 C101.334133,16.5937073 101.365018,16.5604146 101.395588,16.5264878 C101.398109,16.5233171 101.400945,16.5204634 101.403467,16.5172927 C101.433406,16.484 101.46303,16.4503902 101.492339,16.4164634 C101.495491,16.4126585 101.498327,16.4091707 101.501479,16.4053659 C101.530158,16.3717561 101.558521,16.3381463 101.58657,16.3042195 C101.590352,16.2994634 101.593818,16.2947073 101.5976,16.2899512 C101.624703,16.2566585 101.651806,16.2233659 101.677964,16.189439 C101.682061,16.1840488 101.686158,16.1786585 101.690255,16.1732683 C101.716097,16.1399756 101.741624,16.1063659 101.766836,16.0727561 C101.771564,16.0664146 101.775976,16.0600732 101.780388,16.0537317 C101.80497,16.020439 101.829236,15.9871463 101.853188,15.9535366 C101.857915,15.946561 101.862327,15.9399024 101.86737,15.9329268 C101.890376,15.8996341 101.913697,15.8663415 101.936388,15.8324146 C101.941745,15.8244878 101.946473,15.816561 101.95183,15.8089512 C101.973891,15.7756585 101.995636,15.7426829 102.016752,15.7090732 C102.022424,15.7001951 102.027782,15.6913171 102.033455,15.682439 C102.053939,15.6497805 102.074424,15.6168049 102.094594,15.5838293 C102.100582,15.5736829 102.106255,15.5635366 102.112558,15.5533902 C102.131467,15.5213659 102.150691,15.4890244 102.169285,15.4566829 C102.175273,15.4459024 102.180945,15.435439 102.186933,15.4249756 C102.205212,15.3926341 102.223491,15.3599756 102.241139,15.327 C102.246812,15.3165366 102.252485,15.305439 102.258158,15.2946585 C102.275491,15.262 102.293139,15.2290244 102.309842,15.1960488 C102.31583,15.184 102.321818,15.1716341 102.327806,15.1595854 C102.343879,15.127561 102.359952,15.0955366 102.375394,15.0631951 C102.382012,15.049561 102.388,15.0359268 102.394303,15.0222927 C102.409115,14.9912195 102.423612,14.9598293 102.437794,14.928439 C102.444412,14.9138537 102.450715,14.8992683 102.457018,14.8843659 C102.47057,14.8536098 102.484121,14.8228537 102.497358,14.7917805 C102.503976,14.7762439 102.510279,14.7600732 102.516582,14.7442195 C102.528873,14.7140976 102.541479,14.6839756 102.553455,14.6535366 C102.560073,14.6367317 102.566376,14.6192927 102.572994,14.6024878 C102.584024,14.5726829 102.59537,14.5435122 102.6064,14.5137073 C102.612703,14.4959512 102.618691,14.477878 102.624994,14.460122 C102.635394,14.4309512 102.646109,14.4017805 102.655879,14.3722927 C102.662182,14.3535854 102.667855,14.334878 102.673842,14.3164878 C102.683297,14.2873171 102.693067,14.2584634 102.702206,14.2289756 C102.707879,14.2099512 102.713552,14.1906098 102.719224,14.1712683 C102.727733,14.1424146 102.736558,14.113561 102.744752,14.0843902 C102.750424,14.0650488 102.755152,14.0457073 102.760509,14.0263659 C102.768388,13.9971951 102.776582,13.9677073 102.784145,13.9382195 C102.789503,13.9176098 102.79423,13.8966829 102.799273,13.8760732 C102.806206,13.8478537 102.813455,13.8193171 102.820073,13.7910976 C102.82543,13.7676341 102.830158,13.7444878 102.8352,13.7210244 C102.840873,13.6947073 102.846861,13.6687073 102.852218,13.6423902 C102.856945,13.6182927 102.861358,13.5941951 102.866085,13.5704146 C102.870812,13.5440976 102.87617,13.5180976 102.880897,13.4917805 C102.884994,13.4686341 102.888461,13.4451707 102.892558,13.4220244 C102.89697,13.3947561 102.901697,13.3678049 102.905794,13.3405366 C102.909891,13.3139024 102.913358,13.2869512 102.917139,13.2603171 C102.920291,13.2362195 102.924073,13.212122 102.927224,13.1880244 C102.930376,13.1613902 102.933212,13.134439 102.936364,13.1078049 C102.938885,13.0830732 102.942036,13.0586585 102.944558,13.0339268 C102.947079,13.0107805 102.948655,12.9876341 102.950861,12.9644878 C102.953382,12.9359512 102.956218,12.9077317 102.958424,12.878878 C102.960315,12.8516098 102.961891,12.8243415 102.963467,12.7967561 C102.965042,12.7723415 102.966933,12.7479268 102.968194,12.7231951 C102.96977,12.6918049 102.970715,12.6600976 102.971661,12.6287073 C102.972606,12.6077805 102.973552,12.5868537 102.974182,12.5659268 C102.975442,12.5136098 102.976073,12.4609756 102.976073,12.4080244 C102.976073,10.4079268 102.020218,8.62819512 100.544364,7.50670732 L103.941382,3.83087805 L101.020242,1.26829268" id="Fill-2-Copy"></path>
                <path d="M77.5238061,6.34146341 C74.1589333,6.34146341 71.4218424,9.09556098 71.4218424,12.4806341 C71.4218424,13.3072439 71.5854061,14.096122 71.8810182,14.8165122 L65.8505939,14.8165122 L65.8505939,8.1085122 L61.2537939,8.1085122 C57.8889212,8.1085122 55.1515152,10.8626098 55.1515152,14.2476829 L55.1515152,18.5452927 L58.9320727,18.5452927 L58.9320727,14.2476829 C58.9320727,12.9597317 59.9736485,11.912122 61.2537939,11.912122 L62.0700364,11.912122 L62.0700364,18.6198049 L77.5238061,18.6198049 C80.8883636,18.6198049 83.6257697,15.8660244 83.6257697,12.4806341 C83.6257697,9.09556098 80.8883636,6.34146341 77.5238061,6.34146341 L77.5238061,6.34146341 Z M77.5238061,14.8165122 C76.2436606,14.8165122 75.2020848,13.7685854 75.2020848,12.4806341 C75.2020848,11.1926829 76.2436606,10.1447561 77.5238061,10.1447561 C78.8039515,10.1447561 79.8455273,11.1926829 79.8455273,12.4806341 C79.8455273,13.7685854 78.8039515,14.8165122 77.5238061,14.8165122 L77.5238061,14.8165122 Z" id="Fill-7-Copy"></path>
            </g>
        </g>
    </g>
</svg>