<?xml version="1.0" encoding="UTF-8"?>
<svg width="111px" height="114px" viewBox="0 0 111 114" version="1.1" xmlns="http://www.w3.org/2000/svg" xmlns:xlink="http://www.w3.org/1999/xlink">
    <!-- Generator: Sketch 52.6 (67491) - http://www.bohemiancoding.com/sketch -->
    <title>Cafe Board Logo Vertical</title>
    <desc>Created with Sketch.</desc>
    <g id="Page-1" stroke="none" stroke-width="1" fill="none" fill-rule="evenodd">
        <g id="Sign-In-UI" transform="translate(-665.000000, -120.000000)" fill="#DB4D54">
            <g id="Cafe-Board-Logo-Vertical" transform="translate(665.000000, 120.000000)">
                <path d="M25.9059677,83.620425 C25.9059677,76.013775 19.685671,69.825 12.0402774,69.825 L10.3996258,69.825 L6.93284516,78.37215 L12.0402774,78.37215 C14.9484774,78.37215 17.3152839,80.72625 17.3152839,83.620425 C17.3152839,86.5146 14.9484774,88.8694125 12.0402774,88.8694125 L3.46606452,88.8694125 L9.23705556e-14,97.4165625 L12.0402774,97.4165625 C19.685671,97.4165625 25.9059677,91.2277875 25.9059677,83.620425" id="Fill-3-Copy"></path>
                <path d="M103.519316,101.175 C100.531626,101.175 98.1096774,103.584675 98.1096774,106.557225 C98.1096774,109.529775 100.531626,111.93945 103.519316,111.93945 C106.507006,111.93945 108.928955,109.529775 108.928955,106.557225 C108.928955,103.584675 106.507006,101.175 103.519316,101.175" id="Fill-4-Copy"></path>
                <path d="M108.467052,83.523525 L108.467052,70.5375 L99.8763677,73.987425 L99.8763677,83.523525 C99.8763677,86.4177 97.5095613,88.7725125 94.6013613,88.7725125 L38.4740323,88.7725125 L20.7677419,108.098363 L27.1634903,113.804775 L42.3089032,97.3196625 L94.6013613,97.3196625 C102.246755,97.3196625 108.467052,91.1308875 108.467052,83.523525" id="Fill-5-Copy"></path>
                <path d="M81.8377935,81.97455 L91.4231806,72.4377375 C94.1502,69.7245375 94.1502,65.3106 91.4231806,62.5974 C88.6968774,59.8842 84.2597419,59.8842 81.5334387,62.5974 C78.8064194,65.3106 78.8064194,69.7245375 81.5334387,72.4377375 C82.1994387,73.1003625 82.967129,73.599825 83.7878129,73.9382625 L78.7741935,78.926475 L81.8377935,81.97455 L81.8377935,81.97455 Z M84.5970387,65.645475 C85.6347097,64.6130625 87.3226258,64.613775 88.3595806,65.645475 C89.3972516,66.6778875 89.3972516,68.35725 88.3595806,69.38895 C87.3226258,70.4213625 85.6347097,70.4213625 84.5970387,69.38895 C83.5593677,68.35725 83.5593677,66.6778875 84.5970387,65.645475 L84.5970387,65.645475 Z" id="Fill-6-Copy"></path>
                <path d="M50.5257677,-2.66453526e-14 C47.5380774,-2.66453526e-14 45.116129,2.409675 45.116129,5.382225 C45.116129,8.354775 47.5380774,10.76445 50.5257677,10.76445 C53.5134581,10.76445 55.9354065,8.354775 55.9354065,5.382225 C55.9354065,2.409675 53.5134581,-2.66453526e-14 50.5257677,-2.66453526e-14" id="Fill-1-Copy"></path>
                <path d="M104.229,2.85 L87.1657935,21.4213125 L93.5608258,27.127725 L97.2166645,23.2153875 C98.9167548,24.0874875 100.082613,25.8516375 100.082613,27.8822625 C100.082613,30.7764375 97.7165226,33.13125 94.8076065,33.13125 L80.2035871,33.13125 L80.2035871,4.9305 L71.6129032,8.388975 L71.6129032,41.6776875 L94.8620323,41.6776875 L94.8620323,41.676975 C98.3152065,41.66415 101.474768,40.388775 103.897432,38.291175 L103.898865,38.2904625 C103.981935,38.2177875 104.06429,38.1451125 104.145213,38.071725 C104.146645,38.0703 104.148077,38.0695875 104.14951,38.0681625 C104.229716,37.994775 104.309206,37.9213875 104.387981,37.846575 C104.390129,37.843725 104.392994,37.840875 104.395858,37.8387375 C104.4732,37.76535 104.54911,37.6905375 104.624303,37.6150125 C104.6286,37.61145 104.632181,37.607175 104.636477,37.6029 C104.710239,37.5295125 104.784,37.4547 104.856329,37.379175 C104.861342,37.373475 104.866355,37.367775 104.871368,37.3627875 C104.942265,37.287975 105.012445,37.2131625 105.08191,37.136925 C105.087639,37.1298 105.094084,37.1233875 105.099813,37.1162625 C105.167845,37.04145 105.235161,36.965925 105.301761,36.8896875 C105.308923,36.8811375 105.315368,36.8733 105.322529,36.86475 C105.387697,36.789225 105.452148,36.7137 105.515884,36.6374625 C105.524477,36.626775 105.532355,36.6160875 105.540948,36.6054 C105.602535,36.5305875 105.664123,36.455775 105.723561,36.3795375 C105.732871,36.367425 105.742181,36.3553125 105.75149,36.3432 C105.810213,36.2683875 105.868219,36.1928625 105.92551,36.1173375 C105.936252,36.1030875 105.946277,36.0888375 105.956303,36.0745875 C106.012161,35.999775 106.067303,35.9249625 106.121729,35.8494375 C106.132471,35.8337625 106.142497,35.8188 106.153955,35.803125 C106.206232,35.7283125 106.259226,35.6535 106.310787,35.5772625 C106.322961,35.55945 106.333703,35.5416375 106.345877,35.5245375 C106.396006,35.449725 106.445419,35.375625 106.4934,35.3001 C106.50629,35.28015 106.518465,35.2602 106.531355,35.24025 C106.577903,35.1668625 106.624452,35.0927625 106.670284,35.0186625 C106.68389,34.9958625 106.696781,34.9730625 106.711103,34.9502625 C106.754071,34.8783 106.797755,34.805625 106.840006,34.73295 C106.853613,34.708725 106.866503,34.6852125 106.88011,34.6617 C106.921645,34.589025 106.963181,34.5156375 107.003284,34.4415375 C107.016174,34.418025 107.029065,34.3930875 107.041955,34.3688625 C107.081342,34.295475 107.121445,34.221375 107.1594,34.147275 C107.173006,34.1202 107.186613,34.0924125 107.200219,34.0653375 C107.236742,33.993375 107.273265,33.9214125 107.308355,33.8487375 C107.323394,33.8181 107.337,33.7874625 107.351323,33.756825 C107.384981,33.687 107.417923,33.6164625 107.450148,33.545925 C107.465187,33.51315 107.47951,33.480375 107.493832,33.4468875 C107.524626,33.377775 107.555419,33.3086625 107.585497,33.2388375 C107.600535,33.203925 107.614858,33.1675875 107.629181,33.1319625 C107.65711,33.064275 107.685755,32.9965875 107.712968,32.9281875 C107.728006,32.890425 107.742329,32.8512375 107.757368,32.813475 C107.782432,32.7465 107.808213,32.68095 107.833277,32.613975 C107.8476,32.574075 107.861206,32.5334625 107.875529,32.4935625 C107.899161,32.4280125 107.92351,32.3624625 107.94571,32.2962 C107.960032,32.2541625 107.972923,32.212125 107.986529,32.1708 C108.008013,32.10525 108.030213,32.0404125 108.050981,31.97415 C108.063871,31.9314 108.076761,31.8879375 108.089652,31.844475 C108.108987,31.7796375 108.129039,31.7148 108.147658,31.64925 C108.160548,31.6057875 108.17129,31.562325 108.183465,31.5188625 C108.201368,31.4533125 108.219987,31.38705 108.237174,31.3207875 C108.249348,31.274475 108.26009,31.22745 108.271548,31.1811375 C108.287303,31.117725 108.303774,31.0536 108.318813,30.9901875 C108.330987,30.9374625 108.341729,30.88545 108.353187,30.832725 C108.366077,30.7735875 108.379684,30.7151625 108.391858,30.656025 C108.4026,30.601875 108.412626,30.547725 108.423368,30.4942875 C108.43411,30.43515 108.446284,30.376725 108.457026,30.3175875 C108.466335,30.265575 108.474213,30.21285 108.483523,30.1608375 C108.493548,30.0995625 108.50429,30.039 108.5136,29.977725 C108.52291,29.917875 108.530787,29.8573125 108.539381,29.7974625 C108.546542,29.7433125 108.555135,29.6891625 108.562297,29.6350125 C108.569458,29.5751625 108.575903,29.5146 108.583065,29.45475 C108.588794,29.399175 108.595955,29.3443125 108.601684,29.2887375 C108.607413,29.236725 108.610994,29.1847125 108.616006,29.1327 C108.621735,29.068575 108.628181,29.0051625 108.633194,28.940325 C108.63749,28.87905 108.641071,28.817775 108.644652,28.7557875 C108.648232,28.700925 108.652529,28.6460625 108.655394,28.5904875 C108.658974,28.51995 108.661123,28.4487 108.663271,28.3781625 C108.665419,28.3311375 108.667568,28.2841125 108.669,28.2370875 C108.671865,28.119525 108.673297,28.00125 108.673297,27.8822625 C108.673297,23.3878125 106.501277,19.38855 103.147645,16.8684375 L110.8668,8.608425 L104.229,2.85" id="Fill-2-Copy"></path>
                <path d="M50.8372839,14.25 C43.1911742,14.25 36.9715935,20.438775 36.9715935,28.045425 C36.9715935,29.9029125 37.3432645,31.6756125 38.0149935,33.2944125 L24.3118645,33.2944125 L24.3118645,18.2207625 L13.8664065,18.2207625 C6.22029677,18.2207625 2.84217094e-13,24.4095375 2.84217094e-13,32.0161875 L2.84217094e-13,41.6734125 L8.59068387,41.6734125 L8.59068387,32.0161875 C8.59068387,29.1220125 10.9574903,26.7679125 13.8664065,26.7679125 L15.7211806,26.7679125 L15.7211806,41.84085 L50.8372839,41.84085 C58.4826774,41.84085 64.7029742,35.6527875 64.7029742,28.045425 C64.7029742,20.438775 58.4826774,14.25 50.8372839,14.25 L50.8372839,14.25 Z M50.8372839,33.2944125 C47.9283677,33.2944125 45.5615613,30.9396 45.5615613,28.045425 C45.5615613,25.15125 47.9283677,22.7964375 50.8372839,22.7964375 C53.7462,22.7964375 56.1130065,25.15125 56.1130065,28.045425 C56.1130065,30.9396 53.7462,33.2944125 50.8372839,33.2944125 L50.8372839,33.2944125 Z" id="Fill-7-Copy"></path>
            </g>
        </g>
    </g>
</svg>